<svg width="704" height="279" viewBox="0 0 704 279" fill="none" xmlns="http://www.w3.org/2000/svg">
<path d="M481.535 232.833L561.291 279L641.047 232.833L561.291 186.667L481.535 232.833Z" stroke="#3C4F2E" stroke-opacity="0.05" stroke-width="2.84842"/>
<path d="M641.047 232.833L720.803 279L800.559 232.833L720.803 186.667L641.047 232.833Z" stroke="#3C4F2E" stroke-opacity="0.05" stroke-width="2.84842"/>
<path d="M322.023 232.833L401.779 279L481.535 232.833L401.779 186.667L322.023 232.833Z" stroke="#3C4F2E" stroke-opacity="0.05" stroke-width="2.84842"/>
<path d="M401.779 186.666L481.535 232.833L561.291 186.666L481.535 140.5L401.779 186.666Z" stroke="#3C4F2E" stroke-opacity="0.05" stroke-width="2.84842"/>
<path d="M561.291 186.666L641.047 232.833L720.803 186.666L641.047 140.5L561.291 186.666Z" stroke="#3C4F2E" stroke-opacity="0.05" stroke-width="2.84842"/>
<path d="M242.268 186.666L322.024 232.833L401.779 186.666L322.024 140.5L242.268 186.666Z" stroke="#3C4F2E" stroke-opacity="0.05" stroke-width="2.84842"/>
<path d="M322.023 140.5L401.779 186.667L481.535 140.5L401.779 94.3333L322.023 140.5Z" stroke="#3C4F2E" stroke-opacity="0.05" stroke-width="2.84842"/>
<path d="M481.535 140.5L561.291 186.667L641.047 140.5L561.291 94.3333L481.535 140.5Z" stroke="#3C4F2E" stroke-opacity="0.05" stroke-width="2.84842"/>
<path d="M162.512 140.5L242.268 186.667L322.023 140.5L242.268 94.3333L162.512 140.5Z" stroke="#3C4F2E" stroke-opacity="0.05" stroke-width="2.84842"/>
<path d="M242.268 94.3332L322.024 140.5L401.779 94.3332L322.024 48.1665L242.268 94.3332Z" stroke="#3C4F2E" stroke-opacity="0.05" stroke-width="2.84842"/>
<path d="M401.779 94.3332L481.535 140.5L561.291 94.3332L481.535 48.1665L401.779 94.3332Z" stroke="#3C4F2E" stroke-opacity="0.05" stroke-width="2.84842"/>
<path d="M82.7559 94.3332L162.512 140.5L242.268 94.3332L162.512 48.1665L82.7559 94.3332Z" stroke="#3C4F2E" stroke-opacity="0.05" stroke-width="2.84842"/>
<path d="M162.512 48.1667L242.268 94.3334L322.023 48.1667L242.268 2.00005L162.512 48.1667Z" stroke="#3C4F2E" stroke-opacity="0.05" stroke-width="2.84842"/>
<path d="M322.023 48.1667L401.779 94.3334L481.535 48.1667L401.779 2.00005L322.023 48.1667Z" stroke="#3C4F2E" stroke-opacity="0.05" stroke-width="2.84842"/>
<path d="M3 48.1667L82.7559 94.3334L162.512 48.1667L82.7559 2.00005L3 48.1667Z" stroke="#3C4F2E" stroke-opacity="0.05" stroke-width="2.84842"/>
</svg>
