<svg width="704" height="279" viewBox="0 0 704 279" fill="none" xmlns="http://www.w3.org/2000/svg">
<path d="M481.535 46.1667L561.291 0L641.047 46.1667L561.291 92.3333L481.535 46.1667Z" stroke="#3C4F2E" stroke-opacity="0.05" stroke-width="2.84842"/>
<path d="M641.047 46.1667L720.803 0L800.559 46.1667L720.803 92.3333L641.047 46.1667Z" stroke="#3C4F2E" stroke-opacity="0.05" stroke-width="2.84842"/>
<path d="M322.023 46.1667L401.779 0L481.535 46.1667L401.779 92.3333L322.023 46.1667Z" stroke="#3C4F2E" stroke-opacity="0.05" stroke-width="2.84842"/>
<path d="M401.779 92.3335L481.535 46.1669L561.291 92.3335L481.535 138.5L401.779 92.3335Z" stroke="#3C4F2E" stroke-opacity="0.05" stroke-width="2.84842"/>
<path d="M561.291 92.3335L641.047 46.1669L720.803 92.3335L641.047 138.5L561.291 92.3335Z" stroke="#3C4F2E" stroke-opacity="0.05" stroke-width="2.84842"/>
<path d="M242.268 92.3335L322.024 46.1669L401.779 92.3335L322.024 138.5L242.268 92.3335Z" stroke="#3C4F2E" stroke-opacity="0.05" stroke-width="2.84842"/>
<path d="M322.023 138.5L401.779 92.3334L481.535 138.5L401.779 184.667L322.023 138.5Z" stroke="#3C4F2E" stroke-opacity="0.05" stroke-width="2.84842"/>
<path d="M481.535 138.5L561.291 92.3334L641.047 138.5L561.291 184.667L481.535 138.5Z" stroke="#3C4F2E" stroke-opacity="0.05" stroke-width="2.84842"/>
<path d="M162.512 138.5L242.268 92.3334L322.023 138.5L242.268 184.667L162.512 138.5Z" stroke="#3C4F2E" stroke-opacity="0.05" stroke-width="2.84842"/>
<path d="M242.268 184.667L322.024 138.5L401.779 184.667L322.024 230.833L242.268 184.667Z" stroke="#3C4F2E" stroke-opacity="0.05" stroke-width="2.84842"/>
<path d="M401.779 184.667L481.535 138.5L561.291 184.667L481.535 230.833L401.779 184.667Z" stroke="#3C4F2E" stroke-opacity="0.05" stroke-width="2.84842"/>
<path d="M82.7559 184.667L162.512 138.5L242.268 184.667L162.512 230.833L82.7559 184.667Z" stroke="#3C4F2E" stroke-opacity="0.05" stroke-width="2.84842"/>
<path d="M162.512 230.833L242.268 184.667L322.023 230.833L242.268 277L162.512 230.833Z" stroke="#3C4F2E" stroke-opacity="0.05" stroke-width="2.84842"/>
<path d="M322.023 230.833L401.779 184.667L481.535 230.833L401.779 277L322.023 230.833Z" stroke="#3C4F2E" stroke-opacity="0.05" stroke-width="2.84842"/>
<path d="M3 230.833L82.7559 184.667L162.512 230.833L82.7559 277L3 230.833Z" stroke="#3C4F2E" stroke-opacity="0.05" stroke-width="2.84842"/>
</svg>
