<svg width="104" height="33" viewBox="0 0 104 33" fill="none" xmlns="http://www.w3.org/2000/svg">
<path d="M22.7025 0.66981C23.4361 0.66981 24.1734 0.66981 24.9101 0.66472C24.9019 3.30165 24.9365 5.93908 24.8938 8.57601C24.875 10.278 24.1571 12.0919 22.5976 12.9363C20.8352 13.8341 18.6006 13.829 16.8728 12.8533C15.4019 11.9922 14.687 10.2215 14.7267 8.57041C14.7348 5.93603 14.7292 3.30165 14.7323 0.667265H16.8748C16.8804 2.94792 16.8697 5.22603 16.8773 7.50668C16.915 8.55463 16.9175 9.69521 17.5474 10.5884C18.394 11.7545 20.1702 11.8644 21.3633 11.2078C22.443 10.5564 22.6735 9.19796 22.6948 8.03753C22.7131 5.5823 22.6969 3.12504 22.7025 0.66981ZM32.2667 0.718161C34.1227 0.166448 36.194 0.501344 37.847 1.49025C37.8369 2.26184 37.8369 3.03088 37.8369 3.80043C36.4494 2.76571 34.6035 2.00481 32.8808 2.60742C32.1359 2.83035 31.6485 3.72714 32.0072 4.44884C32.3018 5.14001 33.1031 5.34105 33.737 5.59859C35.1031 6.14266 36.6784 6.43481 37.6914 7.58964C38.9933 9.16284 38.6636 11.9636 36.7562 12.9205C34.6101 14.0326 31.9283 13.6788 29.8708 12.521C29.8682 11.7275 29.8682 10.9371 29.8601 10.1436C31.4088 11.3366 33.5574 12.0441 35.4542 11.3178C36.4886 10.9427 36.6198 9.33283 35.6821 8.77705C34.227 7.89553 32.4401 7.71586 31.0445 6.71626C29.8179 5.83373 29.4561 4.08443 29.9654 2.70667C30.3455 1.70707 31.2649 1.01285 32.2667 0.718161ZM52.1847 0.476914C55.1046 3.1571 57.9447 5.92839 60.8112 8.66711V0.667265H62.9542V13.6066C60.0312 10.8297 57.1891 7.97034 54.2499 5.20872V13.3241C53.5564 13.3292 52.8649 13.3292 52.174 13.3317C52.1776 9.04781 52.1562 4.76491 52.1847 0.476914ZM68.5839 0.66472C71.1696 0.66472 73.7522 0.677953 76.3348 0.656577C76.3506 1.30805 76.3506 1.95901 76.3506 2.61048C74.4971 2.61048 72.6456 2.60742 70.7916 2.61048V5.61996C72.4446 5.62556 74.0951 5.61996 75.7482 5.62556V7.56572C74.095 7.56809 72.4428 7.56809 70.7916 7.56572C70.7916 8.83812 70.7916 10.1146 70.7972 11.3875C72.6456 11.3794 74.4971 11.3875 76.343 11.3819C76.3455 12.0522 76.3481 12.7245 76.3481 13.3948H68.5789C68.5839 9.15215 68.5763 4.90996 68.5839 0.66472ZM82.6306 1.16299C84.6398 1.7345e-05 87.2066 0.35629 89.1782 1.42867C89.2158 2.21654 89.2158 3.00645 89.2133 3.79483C87.7826 2.72296 85.8553 1.95646 84.0989 2.65883C83.1022 3.0151 82.9867 4.51857 83.8924 5.03822C85.3678 5.88513 87.1715 6.05614 88.5513 7.09646C90.4054 8.4793 90.2685 11.8267 88.1494 12.8986C86.0033 14.0244 83.295 13.6921 81.2426 12.5021C81.2426 11.7193 81.2426 10.9371 81.2294 10.1543C82.7242 11.2231 84.6265 11.9499 86.4699 11.4516C87.1501 11.2801 87.7744 10.6689 87.6777 9.91864C87.6915 9.34505 87.2895 8.84118 86.7858 8.60553C85.3388 7.85481 83.6314 7.64308 82.3197 6.6277C80.6076 5.30084 80.7206 2.25929 82.6306 1.16299ZM95.4902 1.20625C97.4831 1.7345e-05 100.093 0.324225 102.062 1.42562C102.07 2.20585 102.07 2.98304 102.075 3.76276C100.658 2.69089 98.7235 1.96461 96.9906 2.67206C96.0239 3.04717 95.9135 4.50788 96.7973 5.03822C98.3084 5.9177 100.189 6.05614 101.572 7.17993C102.761 8.11794 102.999 9.85706 102.538 11.2292C102.107 12.4507 100.877 13.1633 99.6689 13.4239C97.8148 13.8071 95.8351 13.4641 94.1877 12.5372C94.1607 11.7412 94.1607 10.9452 94.1582 10.1492C95.7171 11.3071 97.8418 12.0492 99.736 11.3198C100.767 10.9447 100.926 9.36337 99.996 8.78977C98.5007 7.8543 96.6146 7.72095 95.2134 6.61091C93.5614 5.28507 93.6387 2.3219 95.4902 1.20625ZM1.00061 0.667265C3.24691 0.798577 5.5797 0.336949 7.75325 1.04542C10.1669 1.81955 10.5099 5.59604 8.30782 6.82315C10.3145 7.65428 10.7749 10.5004 9.39816 12.0761C8.55153 13.0839 7.16916 13.3516 5.91805 13.3892C4.27822 13.4162 2.64145 13.3892 1.00163 13.3974V0.667265M3.1477 2.61302C3.14498 3.72799 3.14498 4.84278 3.1477 5.9574C4.29959 5.90142 5.49474 6.11824 6.61967 5.79403C7.97813 5.40009 7.98881 3.16219 6.63849 2.75502C5.49982 2.46542 4.30773 2.66392 3.1477 2.61302ZM3.1477 7.83649C3.14261 9.04222 3.14515 10.2485 3.1477 11.4501C4.47054 11.3565 5.89108 11.7102 7.14219 11.1554C8.38262 10.5498 8.27017 8.48592 6.97073 8.02226C5.73844 7.63799 4.41763 7.92047 3.1477 7.83649ZM43.9342 0.667265H46.0792V13.3974H43.9342V0.667265ZM35.152 20.4322C37.1531 19.1644 39.8216 19.5161 41.7988 20.6603C41.7881 21.4268 41.7881 22.1933 41.7907 22.9592C40.3442 21.9011 38.3563 21.0837 36.6148 21.8955C35.7549 22.3057 35.6425 23.5837 36.4163 24.1385C38.0027 25.1462 40.1111 25.1946 41.4798 26.5723C42.3956 27.4376 42.5482 28.8179 42.3132 29.9971C42.04 31.1764 41.0112 32.0554 39.8776 32.3893C37.8933 33 35.6664 32.6707 33.8821 31.6335C33.8877 30.8481 33.8902 30.0633 33.8821 29.278C35.3906 30.4114 37.44 31.1566 39.294 30.4919C40.4134 30.1916 40.6362 28.4713 39.6232 27.9084C38.1259 26.9729 36.221 26.8553 34.8437 25.6974C33.2822 24.3772 33.3839 21.5362 35.152 20.4322ZM9.50806 19.8963H11.6485C11.6536 24.0932 11.6545 28.2918 11.6511 32.4921H9.50806V19.8963ZM17.7433 19.6016C20.594 22.3241 23.4382 25.0577 26.3138 27.7542C26.3245 25.1116 26.3164 22.4717 26.3189 19.8322C27.0312 19.8291 27.7457 19.8281 28.4624 19.8291C28.4675 24.1253 28.4568 28.4184 28.4675 32.7145C25.5608 29.9585 22.7106 27.1404 19.8258 24.3599C19.812 27.0696 19.8258 29.7813 19.8202 32.4936H17.7438C17.7411 28.1949 17.7409 23.8976 17.7433 19.6016ZM47.8854 19.8963H50.029V32.4921H47.8854V19.8963ZM56.1934 19.8963C57.9189 19.8963 59.6461 19.8944 61.3749 19.8907C63.3383 19.8668 65.3664 20.872 66.3259 22.6274C67.3573 24.4708 67.4239 26.7622 66.7839 28.7482C66.098 30.8349 64.0562 32.3109 61.8812 32.4519C59.9869 32.5486 58.0902 32.4656 56.1934 32.4921V19.8963ZM58.4011 21.839V30.5463C59.9361 30.4903 61.5891 30.7825 63.0168 30.0643C64.3905 29.3564 65.0184 27.7486 64.9782 26.269C65.0341 24.7737 64.5065 23.0961 63.1297 22.3297C61.6853 21.5229 59.9737 21.9413 58.4011 21.839ZM71.5955 19.8963C74.1618 19.8939 76.7293 19.8939 79.298 19.8963C79.298 20.5447 79.2949 21.1931 79.2949 21.8421C77.4416 21.8366 75.5894 21.8366 73.7385 21.8421V24.7844C75.389 24.7874 77.0412 24.7884 78.6951 24.7874V26.6635C77.042 26.6635 75.388 26.6604 73.7385 26.6635V30.5438C75.59 30.5494 77.444 30.5438 79.298 30.5468V32.4895H71.5955V19.8963ZM85.5963 19.8938C87.3348 19.9095 89.0739 19.8775 90.8098 19.9045C92.2853 19.9416 93.8453 20.7916 94.2696 22.2813C94.6502 23.5761 94.5591 25.1116 93.7282 26.2181C93.2195 26.8798 92.3942 27.1297 91.6229 27.3414C93.1282 29.0427 94.6222 30.7562 96.1048 32.4819C95.2568 32.4982 94.4121 32.4982 93.5705 32.4819C92.1342 30.7748 90.6704 29.0917 89.2275 27.3953C88.7508 27.3984 88.2766 27.3984 87.8029 27.3984C87.7978 29.0948 87.8004 30.7911 87.8004 32.488C87.0636 32.4904 86.3269 32.4904 85.5902 32.488V19.8897M87.8004 21.7729C87.7953 23.0218 87.7978 24.2708 87.8004 25.5193C88.9446 25.4552 90.1408 25.699 91.2484 25.3427C92.6176 24.793 92.6471 22.5943 91.2993 22.0085C90.1912 21.5845 88.9665 21.8339 87.8065 21.7749" fill="#185F7D"/>
</svg>
