<svg width="235" height="58" viewBox="0 0 235 58" fill="none" xmlns="http://www.w3.org/2000/svg">
<path fill-rule="evenodd" clip-rule="evenodd" d="M48.3594 8.93273L48.6566 10.7898C48.8794 12.4984 48.9908 14.207 48.9537 15.9526C48.9537 19.7783 48.508 23.5668 47.6166 27.2811C46.428 32.2953 44.348 37.0867 41.4881 41.3952C38.1824 46.298 33.391 51.0894 26.4454 55.0265L25.5911 55.5093L24.7368 55.0265C17.7912 51.1636 12.9998 46.3351 9.69417 41.3952C6.79706 37.0867 4.75423 32.3325 3.56567 27.2811C2.67425 23.5668 2.22854 19.7783 2.22854 15.9526C2.22854 14.2441 2.30283 12.4984 2.52569 10.7898L2.78568 8.93273C2.82282 8.78416 2.82282 8.63559 2.78568 8.48702C2.74854 8.33845 2.7114 8.18988 2.59997 8.07845C2.52568 7.96703 2.41426 7.8556 2.30283 7.78132C2.1914 7.70703 2.04283 7.66989 1.9314 7.63274C1.78283 7.5956 1.63427 7.5956 1.4857 7.63274C1.33713 7.66989 1.18856 7.74417 1.07713 7.81846C0.965703 7.89274 0.854275 8.00417 0.77999 8.1156C0.705705 8.26417 0.668562 8.41274 0.63142 8.56131L0.334282 10.4184C0.111428 12.2384 0 14.0955 0 15.9526C0 19.964 0.482852 23.9383 1.41141 27.8382C2.04283 30.4753 2.89711 33.0753 3.97424 35.5638C5.05137 38.0524 6.35135 40.4295 7.87419 42.6952C11.3656 47.8951 16.4169 52.9836 23.6969 56.995L25.0711 57.775C25.2568 57.8493 25.4426 57.8864 25.6283 57.8864C25.814 57.8864 25.9997 57.8493 26.1854 57.775L27.5597 56.995C34.8024 52.9465 39.8909 47.858 43.3823 42.6952C46.428 38.1638 48.6194 33.1124 49.8451 27.8382C50.7737 23.9383 51.2194 19.964 51.2194 15.9526C51.2194 14.0955 51.108 12.2384 50.8851 10.3813L50.588 8.52417C50.5508 8.3756 50.5137 8.22702 50.4394 8.07845C50.3651 7.96703 50.2537 7.8556 50.1423 7.78132C50.0308 7.70703 49.8823 7.63275 49.7337 7.59561C49.5851 7.55846 49.4365 7.55846 49.288 7.59561C49.1394 7.63275 48.9908 7.66989 48.8423 7.74417C48.7308 7.81846 48.6194 7.92989 48.5451 8.04131C48.4708 8.15274 48.3966 8.30131 48.3594 8.44988V8.93273Z" fill="white"/>
<path fill-rule="evenodd" clip-rule="evenodd" d="M9.02567 7.66991L25.6655 2.43283L42.6395 7.78134C42.7881 7.81848 42.9367 7.81848 43.0853 7.81848C43.2338 7.81848 43.3824 7.78133 43.531 7.70705C43.6795 7.63276 43.791 7.55848 43.9024 7.40991C44.0138 7.29848 44.0881 7.14991 44.0881 7.00134C44.1252 6.85277 44.1252 6.70421 44.1252 6.55564C44.1252 6.40707 44.0881 6.2585 44.0138 6.10993C43.9395 5.96136 43.8652 5.84993 43.7538 5.7385C43.6424 5.62708 43.4938 5.55279 43.3452 5.55279L25.9997 0.0557136C25.7769 -0.0185712 25.554 -0.0185712 25.3312 0.0557136L8.39425 5.40422C8.24568 5.44136 8.13425 5.51565 7.98568 5.58993C7.87425 5.70136 7.76283 5.81278 7.72569 5.96135C7.6514 6.10992 7.61426 6.25849 7.61426 6.40706C7.61426 6.55563 7.61426 6.70421 7.6514 6.85278C7.68854 7.00135 7.76283 7.14991 7.83711 7.26134C7.9114 7.37277 8.05997 7.48419 8.20854 7.55848C8.31996 7.63276 8.46853 7.66991 8.65425 7.66991C8.72853 7.70705 8.8771 7.70705 9.02567 7.66991Z" fill="white"/>
<path fill-rule="evenodd" clip-rule="evenodd" d="M0.817029 9.26692L24.6253 57.2549C24.6996 57.4406 24.8482 57.5892 24.9967 57.7006C25.3682 57.9235 25.8139 57.9235 26.1853 57.7006C26.371 57.5892 26.5196 57.4406 26.631 57.2549L41.1537 29.2124L41.1908 29.1753L50.4764 9.22978C50.5507 9.08121 50.5879 8.93264 50.5879 8.78407C50.5879 8.6355 50.5879 8.48693 50.5136 8.33836C50.4764 8.18979 50.4021 8.04122 50.2907 7.92979C50.2164 7.81836 50.0679 7.70694 49.9564 7.63265C49.845 7.55837 49.6964 7.52122 49.5107 7.52122C49.3622 7.52122 49.2136 7.52122 49.065 7.55837C48.9165 7.59551 48.7679 7.6698 48.6565 7.78122C48.545 7.89265 48.4336 8.00408 48.3965 8.15265L39.1109 28.0981L25.591 54.2092L2.78558 8.15265C2.71129 8.04122 2.59987 7.89265 2.52558 7.78122C2.41415 7.6698 2.26558 7.59551 2.11701 7.55837C1.96844 7.48408 1.81987 7.48408 1.67131 7.52122C1.52274 7.52122 1.37417 7.55837 1.2256 7.63265C1.11417 7.70694 0.9656 7.81836 0.891315 7.92979C0.81703 8.04122 0.742745 8.18979 0.705603 8.33836C0.668461 8.48693 0.631319 8.6355 0.668461 8.78407C0.705604 8.96978 0.742744 9.11835 0.817029 9.26692Z" fill="white"/>
<path fill-rule="evenodd" clip-rule="evenodd" d="M12.2198 30.6612H38.7395C38.8881 30.6612 39.0367 30.624 39.1852 30.5869C39.3338 30.5498 39.4452 30.4383 39.5195 30.3269C39.6309 30.2155 39.7052 30.104 39.7424 29.9555C39.8538 29.6583 39.8538 29.3612 39.7424 29.0641C39.7052 28.9155 39.5938 28.8041 39.5195 28.6926C39.4081 28.5812 39.2967 28.5069 39.1852 28.4326C39.0367 28.3955 38.8881 28.3584 38.7395 28.3584H12.2198C12.0713 28.3584 11.9227 28.3955 11.7741 28.4326C11.6256 28.4698 11.5141 28.5812 11.4399 28.6926C11.3284 28.8041 11.2541 28.9155 11.217 29.0641C11.1056 29.3612 11.1056 29.6583 11.217 29.9555C11.2541 30.104 11.3284 30.2155 11.4399 30.3269C11.5513 30.4383 11.6627 30.5126 11.7741 30.5869C11.9227 30.624 12.0713 30.624 12.2198 30.6612ZM86.1332 20.6699H68.8992C68.7506 20.6699 68.602 20.707 68.4534 20.7442C68.3049 20.7813 68.1934 20.8927 68.1192 21.0042C68.0077 21.1156 67.9334 21.227 67.8963 21.3756C67.8592 21.5242 67.822 21.6727 67.822 21.8213V36.1211C67.822 36.2697 67.8592 36.4183 67.8963 36.5668C67.9334 36.7154 68.0077 36.8268 68.1192 36.9383C68.2306 37.0497 68.342 37.124 68.4534 37.1982C68.602 37.2354 68.7506 37.2725 68.8992 37.2725H86.1332V39.6868H68.8992C68.6763 39.6868 68.4535 39.6496 68.2306 39.6125C68.0077 39.5754 67.7849 39.5011 67.562 39.4268C67.3392 39.3525 67.1535 39.2411 66.9677 39.1297C66.782 38.9811 66.6335 38.8325 66.4478 38.6839C66.1135 38.3497 65.8906 37.9782 65.7049 37.5697C65.6306 37.3468 65.5563 37.124 65.5192 36.9011C65.4821 36.6783 65.4449 36.4554 65.4449 36.2325V21.8584C65.4449 21.6356 65.4821 21.4127 65.5192 21.1899C65.5563 20.967 65.6306 20.7442 65.7049 20.5213C65.7792 20.2984 65.8906 20.0756 66.0021 19.8899C66.1135 19.7042 66.262 19.5185 66.4478 19.3699C66.5963 19.2213 66.782 19.0728 66.9677 18.9242C67.1535 18.8128 67.3392 18.7013 67.562 18.627C67.7849 18.5528 68.0077 18.4785 68.2306 18.4413C68.4535 18.4042 68.6763 18.367 68.8992 18.367H86.1332V20.6699ZM118.484 18.2556V20.6699H101.882V27.7641H115.216V30.2155H101.882V37.3097H118.484V39.7239H99.5788V18.2556H118.484Z" fill="white"/>
<path d="M152.693 21.8957V28.1727C152.693 28.3956 152.655 28.6184 152.618 28.8413C152.581 29.0641 152.507 29.287 152.433 29.5099C152.358 29.7327 152.247 29.9556 152.135 30.1413C151.987 30.327 151.875 30.5127 151.69 30.6613C151.541 30.8098 151.355 30.9584 151.17 31.107C150.984 31.2184 150.798 31.3298 150.575 31.4041C150.353 31.4784 150.13 31.5527 149.907 31.627C149.684 31.6641 149.461 31.7013 149.238 31.7013H146.081L152.581 39.6869H149.461L142.998 31.7013H135.421C135.05 31.7013 134.678 31.6641 134.307 31.5898V39.6869H131.967V18.2928H149.275C149.498 18.2928 149.721 18.33 149.944 18.3671C150.167 18.4043 150.39 18.4786 150.613 18.5528C150.835 18.6271 151.021 18.7386 151.207 18.8871C151.578 19.1471 151.875 19.4814 152.135 19.8528C152.247 20.0385 152.358 20.2614 152.433 20.4842C152.507 20.7071 152.581 20.93 152.618 21.1528C152.655 21.4128 152.693 21.6728 152.693 21.8957ZM135.384 29.3241H149.238C149.387 29.3241 149.535 29.287 149.684 29.2499C149.833 29.2127 149.944 29.1384 150.018 28.9899C150.13 28.8784 150.204 28.767 150.241 28.6184C150.278 28.4699 150.315 28.3213 150.315 28.1727V21.8957C150.315 21.5985 150.204 21.3014 150.018 21.0785C149.833 20.8557 149.535 20.7071 149.238 20.7071H135.384C135.236 20.7071 135.087 20.7443 134.938 20.7814C134.79 20.8185 134.678 20.93 134.604 21.0414C134.493 21.1528 134.418 21.2642 134.381 21.4128C134.344 21.5614 134.307 21.71 134.307 21.8585V28.1356C134.307 28.4327 134.418 28.7299 134.678 28.9527C134.827 29.1756 135.124 29.3241 135.384 29.3241Z" fill="white"/>
<path fill-rule="evenodd" clip-rule="evenodd" d="M165.098 18.2556H185.823V20.6699H176.649V39.6868H174.309V20.6699H165.098V18.2556ZM198.452 39.7239V18.2928H200.792V39.7239H198.452ZM231.954 18.2556H234.963L226.309 28.9898L235 39.7239H231.954L224.229 30.2155H217.543V39.7239H215.203V18.2928H217.58V27.8012H224.266L231.954 18.2556Z" fill="white"/>
</svg>
