<svg width="1400" height="316" viewBox="0 0 1400 316" fill="none" xmlns="http://www.w3.org/2000/svg">
<path d="M1239 54L1328.83 2L1418.67 54L1328.83 106L1239 54Z" stroke="#112005" stroke-opacity="0.18" stroke-width="3.20833"/>
<path d="M1059.33 54L1149.17 2L1239 54L1149.17 106L1059.33 54Z" stroke="#112005" stroke-opacity="0.18" stroke-width="3.20833"/>
<path d="M1149.17 106L1239 54L1328.83 106L1239 158L1149.17 106Z" stroke="#112005" stroke-opacity="0.18" stroke-width="3.20833"/>
<path d="M1328.83 106L1418.67 54L1508.5 106L1418.67 158L1328.83 106Z" stroke="#112005" stroke-opacity="0.18" stroke-width="3.20833"/>
<path d="M969.5 106L1059.33 54L1149.17 106L1059.33 158L969.5 106Z" stroke="#112005" stroke-opacity="0.18" stroke-width="3.20833"/>
<path d="M1059.33 158L1149.17 106L1239 158L1149.17 210L1059.33 158Z" stroke="#112005" stroke-opacity="0.18" stroke-width="3.20833"/>
<path d="M1239 158L1328.83 106L1418.67 158L1328.83 210L1239 158Z" stroke="#112005" stroke-opacity="0.18" stroke-width="3.20833"/>
<path d="M879.667 158L969.5 106L1059.33 158L969.5 210L879.667 158Z" stroke="#112005" stroke-opacity="0.18" stroke-width="3.20833"/>
<path d="M969.5 210L1059.33 158L1149.17 210L1059.33 262L969.5 210Z" stroke="#112005" stroke-opacity="0.18" stroke-width="3.20833"/>
<path d="M1149.17 210L1239 158L1328.83 210L1239 262L1149.17 210Z" stroke="#112005" stroke-opacity="0.18" stroke-width="3.20833"/>
<path d="M789.833 210L879.667 158L969.5 210L879.667 262L789.833 210Z" stroke="#112005" stroke-opacity="0.18" stroke-width="3.20833"/>
<path d="M879.667 262L969.5 210L1059.33 262L969.5 314L879.667 262Z" stroke="#112005" stroke-opacity="0.18" stroke-width="3.20833"/>
<path d="M1059.33 262L1149.17 210L1239 262L1149.17 314L1059.33 262Z" stroke="#112005" stroke-opacity="0.18" stroke-width="3.20833"/>
<path d="M700 262L789.833 210L879.667 262L789.833 314L700 262Z" stroke="#112005" stroke-opacity="0.18" stroke-width="3.20833"/>
<path d="M161 54L71.1667 2L-18.6667 54L71.1667 106L161 54Z" stroke="#112005" stroke-opacity="0.18" stroke-width="3.20833"/>
<path d="M340.667 54L250.833 2L161 54L250.833 106L340.667 54Z" stroke="#112005" stroke-opacity="0.18" stroke-width="3.20833"/>
<path d="M250.833 106L161 54L71.1667 106L161 158L250.833 106Z" stroke="#112005" stroke-opacity="0.18" stroke-width="3.20833"/>
<path d="M71.1667 106L-18.6666 54L-108.5 106L-18.6666 158L71.1667 106Z" stroke="#112005" stroke-opacity="0.18" stroke-width="3.20833"/>
<path d="M430.5 106L340.667 54L250.833 106L340.667 158L430.5 106Z" stroke="#112005" stroke-opacity="0.18" stroke-width="3.20833"/>
<path d="M340.667 158L250.833 106L161 158L250.833 210L340.667 158Z" stroke="#112005" stroke-opacity="0.18" stroke-width="3.20833"/>
<path d="M161 158L71.1667 106L-18.6667 158L71.1667 210L161 158Z" stroke="#112005" stroke-opacity="0.18" stroke-width="3.20833"/>
<path d="M520.333 158L430.5 106L340.667 158L430.5 210L520.333 158Z" stroke="#112005" stroke-opacity="0.18" stroke-width="3.20833"/>
<path d="M430.5 210L340.667 158L250.833 210L340.667 262L430.5 210Z" stroke="#112005" stroke-opacity="0.18" stroke-width="3.20833"/>
<path d="M250.833 210L161 158L71.1667 210L161 262L250.833 210Z" stroke="#112005" stroke-opacity="0.18" stroke-width="3.20833"/>
<path d="M610.167 210L520.333 158L430.5 210L520.333 262L610.167 210Z" stroke="#112005" stroke-opacity="0.18" stroke-width="3.20833"/>
<path d="M520.333 262L430.5 210L340.667 262L430.5 314L520.333 262Z" stroke="#112005" stroke-opacity="0.18" stroke-width="3.20833"/>
<path d="M340.667 262L250.833 210L161 262L250.833 314L340.667 262Z" stroke="#112005" stroke-opacity="0.18" stroke-width="3.20833"/>
<path d="M700 262L610.167 210L520.333 262L610.167 314L700 262Z" stroke="#112005" stroke-opacity="0.18" stroke-width="3.20833"/>
</svg>
