<svg width="32" height="32" viewBox="0 0 32 32" fill="none" xmlns="http://www.w3.org/2000/svg">
<rect x="0.5" y="0.5" width="31" height="31" rx="15.5" fill="#050703"/>
<rect x="0.5" y="0.5" width="31" height="31" rx="15.5" stroke="#55931D"/>
<path d="M16 31C24.2843 31 31 24.2843 31 16C31 7.71573 24.2843 1 16 1C7.71573 1 1 7.71573 1 16C1 24.2843 7.71573 31 16 31Z" fill="#F3BA2F"/>
<path d="M12.8623 14.7109L16 11.5732L19.1377 14.7139L20.9629 12.8887L16 7.92285L11.0371 12.8857L12.8623 14.7109Z" fill="white"/>
<path d="M7.92322 15.9985L9.74827 14.1734L11.5734 15.9985L9.74833 17.8236L7.92322 15.9985Z" fill="white"/>
<path d="M12.8623 17.2891L16 20.4268L19.1377 17.2861L20.9658 19.1113H20.9629L16 24.0771L11.0371 19.1143L11.0342 19.1113L12.8623 17.2891Z" fill="white"/>
<path d="M20.4259 16.0017L22.251 14.1766L24.0761 16.0016L22.251 17.8268L20.4259 16.0017Z" fill="white"/>
<path d="M17.8516 16L16 14.1455L14.6318 15.5166L14.4736 15.6719L14.1484 15.9971L14.1455 16L14.1484 16.0029L16 17.8545L17.8516 16Z" fill="white"/>
</svg>
