<svg width="32" height="32" viewBox="0 0 32 32" fill="none" xmlns="http://www.w3.org/2000/svg">
<rect x="0.5" y="0.5" width="31" height="31" rx="15.5" fill="#27A6E5"/>
<rect x="0.5" y="0.5" width="31" height="31" rx="15.5" stroke="#55931D"/>
<path d="M16 31C24.2843 31 31 24.2843 31 16C31 7.71573 24.2843 1 16 1C7.71573 1 1 7.71573 1 16C1 24.2843 7.71573 31 16 31Z" fill="#0052FF"/>
<path d="M16.1246 11.8031C17.8701 11.8031 19.2549 12.8924 19.7808 14.5122H23.2974C22.6603 11.049 19.8361 8.70264 16.1527 8.70264C11.9697 8.70264 8.70276 11.915 8.70276 16.217C8.70276 20.5189 11.8881 23.7026 16.1527 23.7026C19.7535 23.7026 22.6339 21.3562 23.2716 17.8644H19.7805C19.2818 19.4845 17.8982 20.6021 16.1515 20.6021C13.7414 20.6021 12.0523 18.7304 12.0523 16.217C12.0534 13.6749 13.7153 11.8031 16.1246 11.8031Z" fill="white"/>
</svg>
