<svg width="32" height="32" viewBox="0 0 32 32" fill="none" xmlns="http://www.w3.org/2000/svg">
<circle cx="15.9999" cy="16.0001" r="13.3333" fill="#4A8F0C"/>
<circle cx="16.0001" cy="15.9999" r="10.6667" fill="white"/>
<g clip-path="url(#clip0_87_1162)">
<g clip-path="url(#clip1_87_1162)">
<rect x="5" y="4.99976" width="22" height="22" rx="11" fill="white"/>
<path d="M27.0081 15.9679C27.0177 18.1435 26.382 20.2731 25.1813 22.0874C23.9806 23.9017 22.2689 25.3192 20.2626 26.1607C18.2563 27.0022 16.0456 27.2299 13.9099 26.815C11.7742 26.4001 9.80953 25.3612 8.26427 23.8297C6.719 22.2982 5.66257 20.3429 5.22854 18.211C4.79452 16.0791 5.0024 13.8664 5.8259 11.8527C6.6494 9.83896 8.05153 8.11463 9.855 6.89775C11.6585 5.68088 13.7823 5.0261 15.9579 5.01622C18.8755 5.00328 21.6787 6.14982 23.751 8.20364C25.8233 10.2575 26.9949 13.0503 27.0081 15.9679Z" fill="#8DC63F"/>
<path d="M26.1793 15.9704C26.1885 17.9821 25.6009 19.9514 24.4908 21.6292C23.3808 23.307 21.7981 24.6179 19.943 25.3962C18.0879 26.1746 16.0437 26.3853 14.0688 26.0018C12.094 25.6183 10.2772 24.6579 8.84815 23.2418C7.41915 21.8258 6.44215 20.0178 6.04068 18.0465C5.63921 16.0752 5.83131 14.0292 6.59269 12.167C7.35407 10.3049 8.65053 8.7104 10.3181 7.5851C11.9857 6.4598 13.9496 5.85427 15.9613 5.84508C17.2971 5.83897 18.621 6.09603 19.8574 6.60158C21.0938 7.10713 22.2185 7.85125 23.1674 8.79148C24.1162 9.73171 24.8706 10.8496 25.3873 12.0814C25.9041 13.3131 26.1733 14.6346 26.1793 15.9704Z" fill="#F9E988"/>
<path d="M16.1931 6.50454C16.8398 6.38911 17.5018 6.38911 18.1484 6.50454C18.8013 6.60799 19.4323 6.81952 20.0156 7.13042C20.5951 7.44916 21.097 7.88148 21.5954 8.28946C22.0938 8.69744 22.591 9.11005 23.0639 9.56439C23.5461 10.0111 23.967 10.5197 24.3156 11.0769C24.6751 11.6304 24.9695 12.2235 25.193 12.8445C25.6278 14.0848 25.7516 15.4128 25.5535 16.7122H25.4886C25.2977 15.4709 24.9784 14.2528 24.5358 13.0774C24.3238 12.4962 24.074 11.9294 23.7883 11.3806C23.4879 10.8334 23.1575 10.3033 22.7984 9.79272C22.4322 9.27594 21.9835 8.82289 21.4702 8.45172C20.9544 8.08431 20.361 7.84554 19.7861 7.61953C19.2112 7.39352 18.6364 7.16867 18.0395 6.99597C17.4426 6.82328 16.8317 6.69462 16.1954 6.56945L16.1931 6.50454Z" fill="white"/>
<path d="M21.1654 12.3774C20.4271 12.163 19.6587 11.8605 18.8868 11.5545C18.8427 11.3598 18.67 11.1175 18.3223 10.822C17.8158 10.3827 16.8654 10.3943 16.0437 10.5902C15.1373 10.3769 14.2414 10.3016 13.3779 10.5079C6.34833 12.4434 10.3354 17.1758 7.75308 21.9278C8.1205 22.7067 12.0809 27.2594 17.8112 26.0343C17.8112 26.0343 15.8524 21.3251 20.2741 19.065C23.8613 17.2256 26.4541 13.8204 21.1654 12.3774Z" fill="#8BC53F"/>
<path d="M22.0335 15.4731C22.0342 15.5576 22.0098 15.6403 21.9634 15.7109C21.917 15.7815 21.8507 15.8367 21.7729 15.8695C21.6951 15.9024 21.6093 15.9114 21.5263 15.8954C21.4434 15.8794 21.3671 15.8392 21.307 15.7798C21.247 15.7204 21.2059 15.6445 21.189 15.5618C21.1722 15.479 21.1803 15.3931 21.2123 15.315C21.2443 15.2368 21.2987 15.1699 21.3688 15.1227C21.4389 15.0756 21.5213 15.0503 21.6058 15.0501C21.6617 15.0497 21.717 15.0604 21.7688 15.0815C21.8205 15.1026 21.8675 15.1337 21.9073 15.173C21.947 15.2123 21.9786 15.259 22.0002 15.3105C22.0219 15.362 22.0332 15.4172 22.0335 15.4731Z" fill="white"/>
<path d="M16.0436 10.5878C16.5559 10.6249 18.4092 11.2299 18.8867 11.5545C18.4915 10.3954 17.1481 10.2448 16.0436 10.5878Z" fill="#009345"/>
<path d="M16.5316 13.5111C16.5316 13.9008 16.416 14.2818 16.1995 14.6058C15.983 14.9298 15.6753 15.1824 15.3152 15.3315C14.9552 15.4806 14.559 15.5197 14.1768 15.4436C13.7946 15.3676 13.4435 15.1799 13.168 14.9044C12.8924 14.6288 12.7048 14.2777 12.6287 13.8955C12.5527 13.5133 12.5917 13.1171 12.7409 12.7571C12.89 12.3971 13.1425 12.0893 13.4666 11.8728C13.7906 11.6563 14.1715 11.5408 14.5612 11.5408C15.0838 11.5408 15.585 11.7484 15.9545 12.1179C16.324 12.4874 16.5316 12.9886 16.5316 13.5111Z" fill="white"/>
<path d="M15.9486 13.5285C15.9488 13.8022 15.8678 14.0699 15.7159 14.2976C15.564 14.5254 15.3479 14.7029 15.0951 14.8079C14.8422 14.9128 14.5639 14.9403 14.2954 14.8871C14.0269 14.8338 13.7802 14.7021 13.5865 14.5086C13.3929 14.3151 13.261 14.0685 13.2075 13.8C13.154 13.5316 13.1813 13.2533 13.286 13.0003C13.3907 12.7474 13.5681 12.5312 13.7957 12.3791C14.0233 12.2269 14.2909 12.1458 14.5647 12.1458C14.9314 12.1461 15.2831 12.2918 15.5425 12.551C15.8019 12.8102 15.9479 13.1617 15.9486 13.5285Z" fill="#58595B"/>
<path d="M23.6272 16.3402C22.0335 17.4633 20.2208 18.3106 17.6501 18.3106C16.447 18.3106 16.2036 17.0356 15.4085 17.6592C14.997 17.9826 13.554 18.7023 12.4008 18.6513C11.2476 18.6003 9.3873 17.9223 8.87153 15.4709C8.66639 17.9223 8.56091 19.7281 7.64064 21.7981C9.47423 24.7339 13.8449 26.9975 17.8112 26.024C17.3858 23.0476 19.9867 20.1314 21.4528 18.6397C22.0069 18.0753 23.0755 17.1527 23.6272 16.3356V16.3402Z" fill="#8BC53F"/>
<path d="M23.5646 16.4145C23.0568 16.8511 22.4903 17.2144 21.8816 17.4935C21.2749 17.7818 20.6424 18.0123 19.9924 18.182C19.3434 18.3501 18.6642 18.4764 17.9769 18.4138C17.2895 18.3512 16.586 18.1171 16.1328 17.6025L16.1548 17.577C16.7158 17.9398 17.3568 18.0673 17.9966 18.0858C18.6461 18.1047 19.2958 18.0506 19.9333 17.9247C20.5774 17.7905 21.2075 17.5964 21.8156 17.3452C22.4334 17.1092 23.0152 16.7877 23.5437 16.3901L23.5646 16.4145Z" fill="#58595B"/>
</g>
<rect x="5.34375" y="5.34351" width="21.3125" height="21.3125" rx="10.6562" stroke="#55931D" stroke-width="0.6875"/>
</g>
<defs>
<clipPath id="clip0_87_1162">
<rect x="5.3334" y="5.33325" width="21.3333" height="21.3333" rx="10.6667" fill="white"/>
</clipPath>
<clipPath id="clip1_87_1162">
<rect x="5" y="4.99976" width="22" height="22" rx="11" fill="white"/>
</clipPath>
</defs>
</svg>
