<svg width="32" height="32" viewBox="0 0 32 32" fill="none" xmlns="http://www.w3.org/2000/svg">
<circle cx="15.9999" cy="16.0001" r="13.3333" fill="#4A8F0C"/>
<circle cx="16.0001" cy="15.9999" r="10.6667" fill="white"/>
<rect x="5.34375" y="5.34375" width="21.3125" height="21.3125" rx="10.6562" fill="url(#paint0_linear_87_1181)"/>
<rect x="5.34375" y="5.34375" width="21.3125" height="21.3125" rx="10.6562" stroke="#55931D" stroke-width="0.6875"/>
<path d="M20.4717 17.2523C20.2547 17.3849 20.0015 17.409 19.8085 17.3005C19.5674 17.1558 19.4227 16.8302 19.4227 16.3841V15.0215C19.4227 14.3704 19.1695 13.9001 18.7354 13.7796C17.9999 13.5625 17.4452 14.4669 17.2402 14.8045L15.9379 16.8905V14.3222C15.9259 13.7313 15.733 13.3817 15.3712 13.2731C15.1301 13.2008 14.7683 13.237 14.4186 13.7675L11.5127 18.4219C11.1268 17.6863 10.9218 16.8664 10.9218 16.0344C10.9218 13.2249 13.1767 10.9459 15.9379 10.9459C18.6992 10.9459 20.9541 13.2249 20.9541 16.0344V16.0465V16.0585C20.9782 16.6011 20.8094 17.0352 20.4717 17.2523ZM22.0634 16.0344V16.0223V16.0103C22.0513 12.5979 19.3021 9.8125 15.9379 9.8125C12.5617 9.8125 9.8125 12.5979 9.8125 16.0344C9.8125 19.4589 12.5617 22.2563 15.9379 22.2563C17.4934 22.2563 18.9645 21.6655 20.0979 20.5923C20.327 20.3753 20.3391 20.0256 20.1221 19.7965C19.9171 19.5674 19.5674 19.5553 19.3383 19.7603C19.3383 19.7603 19.3383 19.7603 19.3262 19.7724C18.4098 20.6405 17.1799 21.1349 15.9138 21.1349C14.4307 21.1349 13.1043 20.4838 12.1879 19.4468L14.8045 15.2506V17.192C14.8045 18.1204 15.1662 18.4219 15.4677 18.5063C15.7691 18.5907 16.2273 18.5304 16.7217 17.7466L18.1566 15.4195C18.2048 15.3471 18.241 15.2748 18.2892 15.2265V16.4082C18.2892 17.2764 18.6389 17.9757 19.2418 18.3134C19.7844 18.6269 20.4717 18.5907 21.0385 18.241C21.7378 17.7828 22.1116 16.987 22.0634 16.0344Z" fill="white"/>
<defs>
<linearGradient id="paint0_linear_87_1181" x1="16" y1="5" x2="16" y2="27" gradientUnits="userSpaceOnUse">
<stop stop-color="#2B6AFF"/>
<stop offset="1" stop-color="#2B6AFF"/>
</linearGradient>
</defs>
</svg>
