<svg width="122" height="26" viewBox="0 0 122 26" fill="none" xmlns="http://www.w3.org/2000/svg">
<g clip-path="url(#clip0_87_1340)">
<path d="M61.3255 25.3234H63.5246V0.734922H61.3255V25.3234ZM91.6204 0.734922H98.6408V2.78407H96.253V25.3229H94.043V2.78407H91.6209L91.6204 0.734922ZM59.3147 0.734922V25.3234H57.0108L53.716 10.3881V25.3234H51.5553V0.734922H53.5431L57.1535 17.0194V0.734922H59.3147ZM11.4779 0.734922V25.3234H9.31767V4.24612L6.64949 25.3234H4.84813L2.22509 4.24612V25.3234H0.0490112V0.734922H3.72939L5.83684 15.5573L7.82511 0.734922H11.4779ZM38.2722 25.3293C40.0442 22.8864 40.9978 19.9295 40.9927 16.894C40.9927 9.03527 34.7263 2.66381 26.9972 2.66381C19.2667 2.66381 12.9998 9.03527 12.9998 16.894C12.9948 19.9293 13.9478 22.8862 15.7186 25.3298H18.6297C16.5168 23.1631 15.2107 20.1872 15.2107 16.894C15.2107 10.277 20.4875 4.91126 26.9972 4.91126C33.5056 4.91126 38.7828 10.277 38.7828 16.894C38.7828 20.1826 37.4798 23.1631 35.3706 25.3298H38.2717M103.685 17.5615L102.221 4.00604L100.874 17.5615H103.685ZM106.604 25.3234H104.453L103.886 19.7841H100.667L100.141 25.3234H97.9491L100.427 0.734922H103.781L106.604 25.3234ZM80.3229 22.1978C80.3229 23.3073 79.6832 23.8719 78.9486 23.8719C78.215 23.8719 77.5748 23.3073 77.5748 22.1978V3.62733C77.5748 2.52013 78.215 1.95413 78.9486 1.95413C79.6832 1.95413 80.3229 2.52013 80.3229 3.62733L80.3184 4.51511V9.15095H82.5306V5.57641L82.5252 4.54449C82.5098 1.47994 81.3315 0.0201977 78.8719 0.0201977C76.6818 0.0201977 75.2556 1.59929 75.2556 4.02394L75.2579 4.92641V20.3185L75.2561 21.3137C75.2561 24.4627 76.4606 26.0005 78.9256 26.0005C81.3847 26.0005 82.5306 24.4907 82.5306 21.2485V12.3032H78.4683V14.4561H80.3184V21.3825L80.3229 22.1978ZM89.3915 21.6079V15.2153L84.3495 11.3874V4.24428C84.3495 1.43679 85.5938 0 88.0281 0C90.4967 0 91.6209 1.42578 91.6376 4.58121L91.6426 5.56172V9.18446H89.3915V4.32461L89.3843 3.62779C89.3843 2.52059 88.7505 1.95459 88.0254 1.95459C87.2985 1.95459 86.6642 2.52059 86.6642 3.62779V10.3215L91.6426 14.143V21.5363C91.6426 24.4282 90.378 25.9748 88.0128 25.9748C85.6177 25.9748 84.3708 24.5145 84.3559 21.6965L84.3495 20.7233V15.9117H86.6642V22.1973C86.6642 23.3068 87.2981 23.8714 88.0258 23.8714C88.7505 23.8714 89.3848 23.3068 89.3848 22.1973L89.3915 21.6079ZM44.6699 2.67069V12.4069H45.446C46.8699 12.4069 47.5399 11.7427 47.5399 10.3311V5.32027C47.5399 3.30187 47.0808 2.67069 45.6113 2.67069H44.6699ZM50.2176 25.3234H48.0144C47.7119 24.4948 47.5797 23.7186 47.5661 22.6784L47.5481 21.4197L47.5399 20.7835V15.9828C47.5399 14.9752 46.9372 14.5171 46.2411 14.5171H44.6699V25.3229H42.5106V0.735381H45.3273C48.4912 0.735381 49.7092 1.91144 49.7092 5.05816V9.67426C49.7092 11.7427 49.3684 12.6112 47.7769 13.2079L47.8442 13.2309C49.3467 13.6771 49.684 14.2573 49.7007 16.1958L49.7092 17.0887V21.5781C49.7092 23.2132 49.8298 24.0996 50.2176 25.3238M109.337 2.67069V12.4069H110.114C111.539 12.4069 112.209 11.7427 112.209 10.3311V5.32027C112.209 3.30187 111.749 2.67069 110.277 2.67069H109.337ZM114.885 25.3234H112.681C112.379 24.4948 112.247 23.7186 112.233 22.6784L112.215 21.4197L112.208 20.7835V15.9828C112.208 14.9752 111.604 14.5171 110.907 14.5171H109.337V25.3229H107.178V0.735381H109.995C113.16 0.735381 114.376 1.91144 114.376 5.05816V9.67426C114.376 11.7427 114.036 12.6112 112.445 13.2079L112.511 13.2309C114.012 13.6771 114.352 14.2573 114.368 16.1958L114.376 17.0887V21.5781C114.376 23.2132 114.498 24.0996 114.885 25.3238M73.2615 0.734922V25.3234H70.9567L67.6646 10.3881V25.3234H65.5034V0.734922H67.4921L71.0998 17.0194V0.734922H73.2615ZM116.785 3.21924C116.785 2.56063 117.042 1.92899 117.5 1.46302C117.958 0.997054 118.579 0.734856 119.226 0.734004C119.874 0.734491 120.496 0.99645 120.954 1.46234C121.412 1.92824 121.669 2.55997 121.67 3.21879C121.67 3.87772 121.412 4.50962 120.954 4.97568C120.496 5.44175 119.874 5.70388 119.226 5.70448C118.579 5.70351 117.958 5.44121 117.5 4.97517C117.042 4.50913 116.785 3.87744 116.785 3.21879V3.21924ZM116.504 3.21924C116.504 3.95335 116.791 4.65719 117.302 5.17637C117.812 5.69554 118.504 5.98766 119.226 5.98863C119.949 5.98766 120.641 5.69554 121.152 5.17632C121.663 4.65709 121.95 3.95314 121.951 3.21879C121.95 2.48448 121.663 1.78057 121.152 1.26142C120.641 0.742267 119.949 0.45025 119.226 0.4494C118.504 0.450251 117.812 0.742327 117.302 1.26153C116.791 1.78073 116.504 2.48464 116.504 3.21879" fill="#EA293C"/>
<path d="M118.631 3.12743H119.435C119.767 3.12743 120.001 3.0191 120.001 2.65508C120.001 2.29382 119.767 2.18319 119.435 2.18319H118.631V3.12743ZM118.275 1.86737H119.49C119.913 1.86737 120.355 2.03262 120.355 2.65508C120.355 3.00441 120.2 3.34135 119.733 3.41892L120.472 4.60095H120.043L119.318 3.44142H118.631V4.60095H118.275V1.86737" fill="#EA293C"/>
</g>
<defs>
<clipPath id="clip0_87_1340">
<rect width="122" height="26" fill="white"/>
</clipPath>
</defs>
</svg>
