<svg width="89" height="88" viewBox="0 0 89 88" fill="none" xmlns="http://www.w3.org/2000/svg">
<rect x="7.83301" y="7.3335" width="73.3333" height="73.3333" rx="36.6667" fill="#4A8F0C"/>
<path d="M73.8337 43.9998C73.8337 60.1992 60.6997 73.3332 44.5003 73.3332C28.301 73.3332 15.167 60.1992 15.167 43.9998C15.167 27.8005 28.301 14.6665 44.5003 14.6665C60.6997 14.6665 73.8337 27.8005 73.8337 43.9998Z" fill="url(#paint0_linear_42_180)"/>
<path opacity="0.05" d="M21.8792 43.1298C35.1688 37.1083 50.7774 30.5751 53.1811 29.6299C58.4807 27.5456 60.7915 29.6755 60.4297 33.0733C59.9848 37.237 57.8761 49.3533 56.5789 58.0344C55.8195 63.1139 53.0687 64.6702 49.9642 62.7C47.6094 61.2056 39.5134 55.9044 37.3835 54.0923C35.9315 52.857 34.9195 51.4718 35.9494 50.0606C36.2509 49.6483 37.0217 48.8172 37.4503 48.4033C39.5998 46.3206 39.3097 45.8724 36.7104 47.7318C36.4008 47.9535 34.605 49.2556 33.8667 49.7477C32.0578 50.9536 30.394 51.0188 27.5731 50.0606C25.2655 49.2767 23.0492 48.6721 21.651 48.0675C19.7199 47.2316 18.9801 44.4433 21.8792 43.1298Z" fill="black"/>
<path opacity="0.07" d="M23.0472 43.3334C35.3868 37.8171 50.5619 31.4957 52.7814 30.6011C58.1005 28.4532 60.0577 29.7276 59.4857 33.8783C58.9545 37.7209 57.069 49.6107 55.7473 57.5812C54.9684 62.2729 52.6934 63.3061 49.7307 61.3897C47.8746 60.1935 40.4044 55.272 38.5922 53.8396C37.1908 52.7331 35.7388 51.4554 37.4352 49.6058C38.0023 48.9882 41.1345 45.9652 43.4762 43.7163C44.8337 42.411 44.3497 41.7673 42.7119 42.8885C39.7085 44.9467 34.7952 48.2043 33.9185 48.7959C32.2481 49.9203 30.6788 50.1908 27.9475 49.332C25.7948 48.6541 23.7153 47.9974 22.6316 47.5753C20.21 46.6366 20.1774 44.6159 23.0472 43.3334Z" fill="black"/>
<path d="M24.2169 43.5389C35.608 38.5278 50.348 32.4183 52.3834 31.5725C57.7204 29.3595 59.3582 29.7832 58.5418 34.6851C57.9551 38.2084 56.2635 49.8717 54.9142 57.1317C54.1141 61.4371 52.3182 61.9472 49.4957 60.0845C48.1382 59.1882 41.2856 54.6562 39.7978 53.5921C38.4403 52.6225 36.5678 51.4557 38.9161 49.1579C39.7521 48.3398 45.2293 43.1087 49.4973 39.0379C50.0563 38.5034 49.3539 37.625 48.7086 38.0536C42.956 41.8685 34.9806 47.1632 33.9653 47.8525C32.4318 48.8939 30.9587 49.3714 28.3154 48.6119C26.3175 48.0383 24.3668 47.3539 23.6074 47.0931C20.6822 46.0893 21.3764 44.7888 24.2169 43.5389Z" fill="white"/>
<defs>
<linearGradient id="paint0_linear_42_180" x1="23.7587" y1="23.2582" x2="65.2419" y2="64.7414" gradientUnits="userSpaceOnUse">
<stop stop-color="#33BEF0"/>
<stop offset="1" stop-color="#0A85D9"/>
</linearGradient>
</defs>
</svg>
