<svg width="88" height="88" viewBox="0 0 88 88" fill="none" xmlns="http://www.w3.org/2000/svg">
<circle cx="43.9995" cy="44.0002" r="36.6667" fill="#4A8F0C"/>
<circle cx="44.0004" cy="43.9998" r="29.3333" fill="white"/>
<g clip-path="url(#clip0_42_173)">
<path d="M24.4449 14.6665C19.0448 14.6665 14.6671 19.0442 14.6671 24.4443V63.5554C14.6671 68.9555 19.0448 73.3332 24.4449 73.3332H63.556C68.9561 73.3332 73.3338 68.9555 73.3338 63.5554V24.4443C73.3338 19.0442 68.9561 14.6665 63.556 14.6665H24.4449ZM27.3586 27.2379H38.4459L46.3194 38.4262L55.8735 27.2379H59.3655L47.8963 40.666L62.0391 60.7617H50.9546L41.8179 47.7811L30.7306 60.7617H27.2385L40.241 45.5413L27.3586 27.2379ZM32.7058 30.0316L52.4114 57.9681H56.6919L36.9863 30.0316H32.7058Z" fill="black"/>
</g>
<defs>
<clipPath id="clip0_42_173">
<rect x="14.6671" y="14.6665" width="58.6667" height="58.6667" rx="29.3333" fill="white"/>
</clipPath>
</defs>
</svg>
